<svg xmlns="http://www.w3.org/2000/svg" width="512" height="512" viewBox="0 0 512 512" role="img" aria-label="ARCHI">
  <defs>
    <linearGradient id="bg" x1="0%" y1="0%" x2="100%" y2="100%">
      <stop offset="0%" stop-color="#1a1f14"/>
      <stop offset="100%" stop-color="#0e100c"/>
    </linearGradient>
    <linearGradient id="glow" x1="50%" y1="0%" x2="50%" y2="100%">
      <stop offset="0%" stop-color="#88965a" stop-opacity="0.35"/>
      <stop offset="100%" stop-color="#3d4528" stop-opacity="0"/>
    </linearGradient>
    <linearGradient id="letter" x1="0%" y1="0%" x2="100%" y2="100%">
      <stop offset="0%" stop-color="#eceee2"/>
      <stop offset="50%" stop-color="#b6c09e"/>
      <stop offset="100%" stop-color="#809166"/>
    </linearGradient>
    <filter id="soft" x="-8%" y="-8%" width="116%" height="116%">
      <feGaussianBlur stdDeviation="2" result="b"/>
      <feMerge>
        <feMergeNode in="b"/>
        <feMergeNode in="SourceGraphic"/>
      </feMerge>
    </filter>
  </defs>
  <rect width="512" height="512" rx="96" fill="url(#bg)"/>
  <rect width="512" height="512" rx="96" fill="url(#glow)"/>
  <!-- HUD frame -->
  <path fill="none" stroke="#69784e" stroke-opacity="0.55" stroke-width="3"
    d="M56 48h400l24 28v360l-24 28H56L32 436V76z"/>
  <path fill="none" stroke="#98a680" stroke-opacity="0.35" stroke-width="1.5"
    d="M72 64h368l16 18v348l-16 18H72L56 412V82z"/>
  <!-- Letter A -->
  <g filter="url(#soft)">
    <path fill="url(#letter)"
      d="M256 132 L352 380 H296 L276 322 H236 L216 380 H160 Z M248 268 H264 L256 220 Z"/>
  </g>
</svg>
